<?xml version="1.0" encoding="UTF-8" standalone="no"?>
<!DOCTYPE svg PUBLIC "-//W3C//DTD SVG 1.1//EN"
 "http://www.w3.org/Graphics/SVG/1.1/DTD/svg11.dtd">
<!-- Generated by graphviz version 2.36.0 (20140111.2315)
 -->
<!-- Title: G Pages: 1 -->
<svg width="530pt" height="664pt"
 viewBox="0.00 0.00 530.00 664.00" xmlns="http://www.w3.org/2000/svg" xmlns:xlink="http://www.w3.org/1999/xlink">
<g id="graph0" class="graph" transform="scale(1 1) rotate(0) translate(4 660)">
<title>G</title>
<polygon fill="white" stroke="none" points="-4,4 -4,-660 526,-660 526,4 -4,4"/>
<g id="clust1" class="cluster"><title>cluster_Global</title>
<path fill="none" stroke="gray" d="M20,-98C20,-98 502,-98 502,-98 508,-98 514,-104 514,-110 514,-110 514,-636 514,-636 514,-642 508,-648 502,-648 502,-648 20,-648 20,-648 14,-648 8,-642 8,-636 8,-636 8,-110 8,-110 8,-104 14,-98 20,-98"/>
<text text-anchor="middle" x="261" y="-635.2" font-family="Times,serif" font-size="11.00" fill="gray">Global</text>
</g>
<g id="clust2" class="cluster"><title>cluster_\block_mycourse_recommendations</title>
<path fill="none" stroke="gray" d="M28,-152C28,-152 494,-152 494,-152 500,-152 506,-158 506,-164 506,-164 506,-608 506,-608 506,-614 500,-620 494,-620 494,-620 28,-620 28,-620 22,-620 16,-614 16,-608 16,-608 16,-164 16,-164 16,-158 22,-152 28,-152"/>
<text text-anchor="middle" x="261" y="-607.2" font-family="Times,serif" font-size="11.00" fill="gray">block_mycourse_recommendations</text>
</g>
<g id="clust3" class="cluster"><title>cluster_\block_mycourse_recommendations\task</title>
<path fill="none" stroke="gray" d="M294,-260C294,-260 486,-260 486,-260 492,-260 498,-266 498,-272 498,-272 498,-320 498,-320 498,-326 492,-332 486,-332 486,-332 294,-332 294,-332 288,-332 282,-326 282,-320 282,-320 282,-272 282,-272 282,-266 288,-260 294,-260"/>
<text text-anchor="middle" x="390" y="-319.2" font-family="Times,serif" font-size="11.00" fill="gray">task</text>
</g>
<!-- \\block_mycourse_recommendations\\task\\create_recommendations_task -->
<g id="node1" class="node"><title>\\block_mycourse_recommendations\\task\\create_recommendations_task</title>
<polygon fill="none" stroke="black" points="489.5,-304 290.5,-304 290.5,-268 489.5,-268 489.5,-304"/>
<text text-anchor="middle" x="390" y="-283.2" font-family="Courier,monospace" font-size="11.00">create_recommendations_task</text>
</g>
<!-- \\core\\task\\scheduled_task -->
<g id="node14" class="node"><title>\\core\\task\\scheduled_task</title>
<ellipse fill="none" stroke="black" cx="107" cy="-72" rx="100.983" ry="18"/>
<text text-anchor="middle" x="107" y="-68.3" font-family="Times,serif" font-size="14.00" fill="gray">\core\task\scheduled_task</text>
</g>
<!-- \\block_mycourse_recommendations\\task\\create_recommendations_task&#45;&gt;\\core\\task\\scheduled_task -->
<g id="edge4" class="edge"><title>\\block_mycourse_recommendations\\task\\create_recommendations_task&#45;&gt;\\core\\task\\scheduled_task</title>
<path fill="none" stroke="black" d="M290.497,-270.268C286.846,-268.395 283.329,-266.313 280,-264 230.168,-229.377 248.835,-192.883 208,-148 189.382,-127.536 164.655,-108.689 144.449,-94.8819"/>
<polygon fill="none" stroke="black" points="146.352,-91.944 136.096,-89.2834 142.454,-97.7586 146.352,-91.944"/>
</g>
<!-- \\block_mycourse_recommendations\\abstract_recommendator -->
<g id="node2" class="node"><title>\\block_mycourse_recommendations\\abstract_recommendator</title>
<polygon fill="none" stroke="black" points="189.5,-592 24.5,-592 24.5,-556 189.5,-556 189.5,-592"/>
<text text-anchor="start" x="73" y="-577.2" font-family="Courier,monospace" font-size="11.00">«abstract»</text>
<text text-anchor="start" x="32.5" y="-565.2" font-family="Courier,monospace" font-size="11.00">abstract_recommendator</text>
</g>
<!-- \\block_mycourse_recommendations\\simple_recommendator -->
<g id="node3" class="node"><title>\\block_mycourse_recommendations\\simple_recommendator</title>
<polygon fill="none" stroke="black" points="466,-592 314,-592 314,-556 466,-556 466,-592"/>
<text text-anchor="middle" x="390" y="-571.2" font-family="Courier,monospace" font-size="11.00">simple_recommendator</text>
</g>
<!-- \\block_mycourse_recommendations\\simple_recommendator&#45;&gt;\\block_mycourse_recommendations\\abstract_recommendator -->
<g id="edge2" class="edge"><title>\\block_mycourse_recommendations\\simple_recommendator&#45;&gt;\\block_mycourse_recommendations\\abstract_recommendator</title>
<path fill="none" stroke="black" d="M313.697,-574C278.776,-574 236.951,-574 200.162,-574"/>
<polygon fill="none" stroke="black" points="199.929,-570.5 189.929,-574 199.929,-577.5 199.929,-570.5"/>
</g>
<!-- \\block_mycourse_recommendations\\query_result -->
<g id="node4" class="node"><title>\\block_mycourse_recommendations\\query_result</title>
<polygon fill="none" stroke="black" points="439,-484 341,-484 341,-448 439,-448 439,-484"/>
<text text-anchor="middle" x="390" y="-463.2" font-family="Courier,monospace" font-size="11.00">query_result</text>
</g>
<!-- \\block_mycourse_recommendations\\database_helper -->
<g id="node5" class="node"><title>\\block_mycourse_recommendations\\database_helper</title>
<polygon fill="none" stroke="black" points="449,-430 331,-430 331,-394 449,-394 449,-430"/>
<text text-anchor="middle" x="390" y="-409.2" font-family="Courier,monospace" font-size="11.00">database_helper</text>
</g>
<!-- \\block_mycourse_recommendations\\cosine_similarity_associator -->
<g id="node6" class="node"><title>\\block_mycourse_recommendations\\cosine_similarity_associator</title>
<polygon fill="none" stroke="black" points="493,-538 287,-538 287,-502 493,-502 493,-538"/>
<text text-anchor="middle" x="390" y="-517.2" font-family="Courier,monospace" font-size="11.00">cosine_similarity_associator</text>
</g>
<!-- \\block_mycourse_recommendations\\abstract_associator -->
<g id="node10" class="node"><title>\\block_mycourse_recommendations\\abstract_associator</title>
<polygon fill="none" stroke="black" points="179.5,-538 34.5,-538 34.5,-502 179.5,-502 179.5,-538"/>
<text text-anchor="middle" x="107" y="-517.2" font-family="Courier,monospace" font-size="11.00">abstract_associator</text>
</g>
<!-- \\block_mycourse_recommendations\\cosine_similarity_associator&#45;&gt;\\block_mycourse_recommendations\\abstract_associator -->
<g id="edge3" class="edge"><title>\\block_mycourse_recommendations\\cosine_similarity_associator&#45;&gt;\\block_mycourse_recommendations\\abstract_associator</title>
<path fill="none" stroke="black" stroke-dasharray="1,5" d="M286.758,-520C254.895,-520 220.19,-520 189.909,-520"/>
<polygon fill="none" stroke="black" points="189.82,-516.5 179.82,-520 189.82,-523.5 189.82,-516.5"/>
</g>
<!-- \\block_mycourse_recommendations\\decimal_matrix -->
<g id="node7" class="node"><title>\\block_mycourse_recommendations\\decimal_matrix</title>
<polygon fill="none" stroke="black" points="445.5,-376 334.5,-376 334.5,-340 445.5,-340 445.5,-376"/>
<text text-anchor="middle" x="390" y="-355.2" font-family="Courier,monospace" font-size="11.00">decimal_matrix</text>
</g>
<!-- \\block_mycourse_recommendations\\abstract_matrix -->
<g id="node11" class="node"><title>\\block_mycourse_recommendations\\abstract_matrix</title>
<polygon fill="none" stroke="black" points="166,-376 48,-376 48,-340 166,-340 166,-376"/>
<text text-anchor="middle" x="107" y="-355.2" font-family="Courier,monospace" font-size="11.00">abstract_matrix</text>
</g>
<!-- \\block_mycourse_recommendations\\decimal_matrix&#45;&gt;\\block_mycourse_recommendations\\abstract_matrix -->
<g id="edge5" class="edge"><title>\\block_mycourse_recommendations\\decimal_matrix&#45;&gt;\\block_mycourse_recommendations\\abstract_matrix</title>
<path fill="none" stroke="black" stroke-dasharray="1,5" d="M334.487,-358C289.339,-358 224.943,-358 176.35,-358"/>
<polygon fill="none" stroke="black" points="176.233,-354.5 166.233,-358 176.233,-361.5 176.233,-354.5"/>
</g>
<!-- \\block_mycourse_recommendations\\recommendations_renderer -->
<g id="node8" class="node"><title>\\block_mycourse_recommendations\\recommendations_renderer</title>
<polygon fill="none" stroke="black" points="479.5,-250 300.5,-250 300.5,-214 479.5,-214 479.5,-250"/>
<text text-anchor="middle" x="390" y="-229.2" font-family="Courier,monospace" font-size="11.00">recommendations_renderer</text>
</g>
<!-- \\block_mycourse_recommendations\\course_filter -->
<g id="node9" class="node"><title>\\block_mycourse_recommendations\\course_filter</title>
<polygon fill="none" stroke="black" points="442,-196 338,-196 338,-160 442,-160 442,-196"/>
<text text-anchor="middle" x="390" y="-175.2" font-family="Courier,monospace" font-size="11.00">course_filter</text>
</g>
<!-- \\block_mycourse_recommendations -->
<g id="node12" class="node"><title>\\block_mycourse_recommendations</title>
<polygon fill="none" stroke="black" points="499.5,-142 280.5,-142 280.5,-106 499.5,-106 499.5,-142"/>
<text text-anchor="middle" x="390" y="-121.2" font-family="Courier,monospace" font-size="11.00">block_mycourse_recommendations</text>
</g>
<!-- \\block_base -->
<g id="node13" class="node"><title>\\block_base</title>
<ellipse fill="none" stroke="black" cx="107" cy="-18" rx="52.7911" ry="18"/>
<text text-anchor="middle" x="107" y="-14.3" font-family="Times,serif" font-size="14.00" fill="gray">\block_base</text>
</g>
<!-- \\block_mycourse_recommendations&#45;&gt;\\block_base -->
<g id="edge1" class="edge"><title>\\block_mycourse_recommendations&#45;&gt;\\block_base</title>
<path fill="none" stroke="black" d="M351.862,-105.858C315.72,-88.6677 258.952,-62.8877 208,-45 192.829,-39.6738 176.056,-34.7744 160.651,-30.6535"/>
<polygon fill="none" stroke="black" points="161.317,-27.2098 150.757,-28.0611 159.543,-33.9813 161.317,-27.2098"/>
</g>
</g>
</svg>
