<?xml version="1.0" encoding="UTF-8" standalone="no"?>
<!DOCTYPE svg PUBLIC "-//W3C//DTD SVG 1.1//EN"
 "http://www.w3.org/Graphics/SVG/1.1/DTD/svg11.dtd">
<!-- Generated by graphviz version 2.36.0 (20140111.2315)
 -->
<!-- Title: G Pages: 1 -->
<svg width="523pt" height="726pt"
 viewBox="0.00 0.00 523.00 726.00" xmlns="http://www.w3.org/2000/svg" xmlns:xlink="http://www.w3.org/1999/xlink">
<g id="graph0" class="graph" transform="scale(1 1) rotate(0) translate(4 722)">
<title>G</title>
<polygon fill="white" stroke="none" points="-4,4 -4,-722 519,-722 519,4 -4,4"/>
<g id="clust1" class="cluster"><title>cluster_Global</title>
<path fill="none" stroke="gray" d="M20,-98C20,-98 495,-98 495,-98 501,-98 507,-104 507,-110 507,-110 507,-698 507,-698 507,-704 501,-710 495,-710 495,-710 20,-710 20,-710 14,-710 8,-704 8,-698 8,-698 8,-110 8,-110 8,-104 14,-98 20,-98"/>
<text text-anchor="middle" x="257.5" y="-697.2" font-family="Times,serif" font-size="11.00" fill="gray">Global</text>
</g>
<g id="clust2" class="cluster"><title>cluster_\block_mycourse_recommendations</title>
<path fill="none" stroke="gray" d="M28,-106C28,-106 487,-106 487,-106 493,-106 499,-112 499,-118 499,-118 499,-670 499,-670 499,-676 493,-682 487,-682 487,-682 28,-682 28,-682 22,-682 16,-676 16,-670 16,-670 16,-118 16,-118 16,-112 22,-106 28,-106"/>
<text text-anchor="middle" x="257.5" y="-669.2" font-family="Times,serif" font-size="11.00" fill="gray">block_mycourse_recommendations</text>
</g>
<g id="clust3" class="cluster"><title>cluster_\block_mycourse_recommendations\task</title>
<path fill="none" stroke="gray" d="M287,-376C287,-376 479,-376 479,-376 485,-376 491,-382 491,-388 491,-388 491,-436 491,-436 491,-442 485,-448 479,-448 479,-448 287,-448 287,-448 281,-448 275,-442 275,-436 275,-436 275,-388 275,-388 275,-382 281,-376 287,-376"/>
<text text-anchor="middle" x="383" y="-435.2" font-family="Times,serif" font-size="11.00" fill="gray">task</text>
</g>
<!-- \\block_mycourse_recommendations\\task\\create_recommendations_task -->
<g id="node1" class="node"><title>\\block_mycourse_recommendations\\task\\create_recommendations_task</title>
<polygon fill="none" stroke="black" points="482.5,-420 283.5,-420 283.5,-384 482.5,-384 482.5,-420"/>
<text text-anchor="middle" x="383" y="-399.2" font-family="Courier,monospace" font-size="11.00">create_recommendations_task</text>
</g>
<!-- \\core\\task\\scheduled_task -->
<g id="node15" class="node"><title>\\core\\task\\scheduled_task</title>
<ellipse fill="none" stroke="black" cx="107" cy="-72" rx="100.983" ry="18"/>
<text text-anchor="middle" x="107" y="-68.3" font-family="Times,serif" font-size="14.00" fill="gray">\core\task\scheduled_task</text>
</g>
<!-- \\block_mycourse_recommendations\\task\\create_recommendations_task&#45;&gt;\\core\\task\\scheduled_task -->
<g id="edge4" class="edge"><title>\\block_mycourse_recommendations\\task\\create_recommendations_task&#45;&gt;\\core\\task\\scheduled_task</title>
<path fill="none" stroke="black" d="M283.342,-386.786C280.386,-384.759 277.591,-382.505 275,-380 183.629,-291.659 295.365,-194.304 208,-102 202.946,-96.6604 196.983,-92.2596 190.526,-88.6344"/>
<polygon fill="none" stroke="black" points="191.97,-85.444 181.454,-84.1561 188.872,-91.721 191.97,-85.444"/>
</g>
<!-- \\block_mycourse_recommendations\\simple_recommendator -->
<g id="node2" class="node"><title>\\block_mycourse_recommendations\\simple_recommendator</title>
<polygon fill="none" stroke="black" points="459,-654 307,-654 307,-618 459,-618 459,-654"/>
<text text-anchor="middle" x="383" y="-633.2" font-family="Courier,monospace" font-size="11.00">simple_recommendator</text>
</g>
<!-- \\block_mycourse_recommendations\\abstract_recommendator -->
<g id="node7" class="node"><title>\\block_mycourse_recommendations\\abstract_recommendator</title>
<polygon fill="none" stroke="black" points="189.5,-654 24.5,-654 24.5,-618 189.5,-618 189.5,-654"/>
<text text-anchor="start" x="73" y="-639.2" font-family="Courier,monospace" font-size="11.00">«abstract»</text>
<text text-anchor="start" x="32.5" y="-627.2" font-family="Courier,monospace" font-size="11.00">abstract_recommendator</text>
</g>
<!-- \\block_mycourse_recommendations\\simple_recommendator&#45;&gt;\\block_mycourse_recommendations\\abstract_recommendator -->
<g id="edge1" class="edge"><title>\\block_mycourse_recommendations\\simple_recommendator&#45;&gt;\\block_mycourse_recommendations\\abstract_recommendator</title>
<path fill="none" stroke="black" d="M306.766,-636C273.746,-636 234.671,-636 199.942,-636"/>
<polygon fill="none" stroke="black" points="199.795,-632.5 189.795,-636 199.795,-639.5 199.795,-632.5"/>
</g>
<!-- \\block_mycourse_recommendations\\import_form -->
<g id="node3" class="node"><title>\\block_mycourse_recommendations\\import_form</title>
<polygon fill="none" stroke="black" points="428.5,-204 337.5,-204 337.5,-168 428.5,-168 428.5,-204"/>
<text text-anchor="middle" x="383" y="-183.2" font-family="Courier,monospace" font-size="11.00">import_form</text>
</g>
<!-- \\moodleform -->
<g id="node14" class="node"><title>\\moodleform</title>
<ellipse fill="none" stroke="black" cx="107" cy="-18" rx="57.6901" ry="18"/>
<text text-anchor="middle" x="107" y="-14.3" font-family="Times,serif" font-size="14.00" fill="gray">\moodleform</text>
</g>
<!-- \\block_mycourse_recommendations\\import_form&#45;&gt;\\moodleform -->
<g id="edge2" class="edge"><title>\\block_mycourse_recommendations\\import_form&#45;&gt;\\moodleform</title>
<path fill="none" stroke="black" d="M337.483,-182.656C316.826,-179.241 292.935,-172.446 275,-159 227.978,-123.747 254.729,-80.6404 208,-45 197.289,-36.831 184.285,-31.1309 171.246,-27.1543"/>
<polygon fill="none" stroke="black" points="171.875,-23.6979 161.306,-24.437 170.029,-30.4501 171.875,-23.6979"/>
</g>
<!-- \\block_mycourse_recommendations\\recommendations_renderer -->
<g id="node4" class="node"><title>\\block_mycourse_recommendations\\recommendations_renderer</title>
<polygon fill="none" stroke="black" points="472.5,-492 293.5,-492 293.5,-456 472.5,-456 472.5,-492"/>
<text text-anchor="middle" x="383" y="-471.2" font-family="Courier,monospace" font-size="11.00">recommendations_renderer</text>
</g>
<!-- \\block_mycourse_recommendations\\cosine_similarity_associator -->
<g id="node5" class="node"><title>\\block_mycourse_recommendations\\cosine_similarity_associator</title>
<polygon fill="none" stroke="black" points="486,-600 280,-600 280,-564 486,-564 486,-600"/>
<text text-anchor="middle" x="383" y="-579.2" font-family="Courier,monospace" font-size="11.00">cosine_similarity_associator</text>
</g>
<!-- \\block_mycourse_recommendations\\abstract_associator -->
<g id="node13" class="node"><title>\\block_mycourse_recommendations\\abstract_associator</title>
<polygon fill="none" stroke="black" points="179.5,-600 34.5,-600 34.5,-564 179.5,-564 179.5,-600"/>
<text text-anchor="middle" x="107" y="-579.2" font-family="Courier,monospace" font-size="11.00">abstract_associator</text>
</g>
<!-- \\block_mycourse_recommendations\\cosine_similarity_associator&#45;&gt;\\block_mycourse_recommendations\\abstract_associator -->
<g id="edge3" class="edge"><title>\\block_mycourse_recommendations\\cosine_similarity_associator&#45;&gt;\\block_mycourse_recommendations\\abstract_associator</title>
<path fill="none" stroke="black" stroke-dasharray="1,5" d="M279.973,-582C250.296,-582 218.272,-582 189.997,-582"/>
<polygon fill="none" stroke="black" points="189.761,-578.5 179.761,-582 189.761,-585.5 189.761,-578.5"/>
</g>
<!-- \\block_mycourse_recommendations\\course_filter -->
<g id="node6" class="node"><title>\\block_mycourse_recommendations\\course_filter</title>
<polygon fill="none" stroke="black" points="435,-366 331,-366 331,-330 435,-330 435,-366"/>
<text text-anchor="middle" x="383" y="-345.2" font-family="Courier,monospace" font-size="11.00">course_filter</text>
</g>
<!-- \\block_mycourse_recommendations\\database_helper -->
<g id="node8" class="node"><title>\\block_mycourse_recommendations\\database_helper</title>
<polygon fill="none" stroke="black" points="442,-312 324,-312 324,-276 442,-276 442,-312"/>
<text text-anchor="middle" x="383" y="-291.2" font-family="Courier,monospace" font-size="11.00">database_helper</text>
</g>
<!-- \\block_mycourse_recommendations\\csv_importer -->
<g id="node9" class="node"><title>\\block_mycourse_recommendations\\csv_importer</title>
<polygon fill="none" stroke="black" points="432,-258 334,-258 334,-222 432,-222 432,-258"/>
<text text-anchor="middle" x="383" y="-237.2" font-family="Courier,monospace" font-size="11.00">csv_importer</text>
</g>
<!-- \\block_mycourse_recommendations\\decimal_matrix -->
<g id="node10" class="node"><title>\\block_mycourse_recommendations\\decimal_matrix</title>
<polygon fill="none" stroke="black" points="438.5,-546 327.5,-546 327.5,-510 438.5,-510 438.5,-546"/>
<text text-anchor="middle" x="383" y="-525.2" font-family="Courier,monospace" font-size="11.00">decimal_matrix</text>
</g>
<!-- \\block_mycourse_recommendations\\abstract_matrix -->
<g id="node12" class="node"><title>\\block_mycourse_recommendations\\abstract_matrix</title>
<polygon fill="none" stroke="black" points="166,-546 48,-546 48,-510 166,-510 166,-546"/>
<text text-anchor="middle" x="107" y="-525.2" font-family="Courier,monospace" font-size="11.00">abstract_matrix</text>
</g>
<!-- \\block_mycourse_recommendations\\decimal_matrix&#45;&gt;\\block_mycourse_recommendations\\abstract_matrix -->
<g id="edge5" class="edge"><title>\\block_mycourse_recommendations\\decimal_matrix&#45;&gt;\\block_mycourse_recommendations\\abstract_matrix</title>
<path fill="none" stroke="black" stroke-dasharray="1,5" d="M327.211,-528C283.707,-528 222.654,-528 176.024,-528"/>
<polygon fill="none" stroke="black" points="176.005,-524.5 166.005,-528 176.005,-531.5 176.005,-524.5"/>
</g>
<!-- \\block_mycourse_recommendations\\query_result -->
<g id="node11" class="node"><title>\\block_mycourse_recommendations\\query_result</title>
<polygon fill="none" stroke="black" points="432,-150 334,-150 334,-114 432,-114 432,-150"/>
<text text-anchor="middle" x="383" y="-129.2" font-family="Courier,monospace" font-size="11.00">query_result</text>
</g>
</g>
</svg>
