<?xml version="1.0" encoding="UTF-8" standalone="no"?>
<!DOCTYPE svg PUBLIC "-//W3C//DTD SVG 1.1//EN"
 "http://www.w3.org/Graphics/SVG/1.1/DTD/svg11.dtd">
<!-- Generated by graphviz version 2.36.0 (20140111.2315)
 -->
<!-- Title: G Pages: 1 -->
<svg width="530pt" height="826pt"
 viewBox="0.00 0.00 530.00 826.00" xmlns="http://www.w3.org/2000/svg" xmlns:xlink="http://www.w3.org/1999/xlink">
<g id="graph0" class="graph" transform="scale(1 1) rotate(0) translate(4 822)">
<title>G</title>
<polygon fill="white" stroke="none" points="-4,4 -4,-822 526,-822 526,4 -4,4"/>
<g id="clust1" class="cluster"><title>cluster_Global</title>
<path fill="none" stroke="gray" d="M20,-152C20,-152 502,-152 502,-152 508,-152 514,-158 514,-164 514,-164 514,-798 514,-798 514,-804 508,-810 502,-810 502,-810 20,-810 20,-810 14,-810 8,-804 8,-798 8,-798 8,-164 8,-164 8,-158 14,-152 20,-152"/>
<text text-anchor="middle" x="261" y="-797.2" font-family="Times,serif" font-size="11.00" fill="gray">Global</text>
</g>
<g id="clust2" class="cluster"><title>cluster_\block_mycourse_recommendations</title>
<path fill="none" stroke="gray" d="M28,-206C28,-206 494,-206 494,-206 500,-206 506,-212 506,-218 506,-218 506,-770 506,-770 506,-776 500,-782 494,-782 494,-782 28,-782 28,-782 22,-782 16,-776 16,-770 16,-770 16,-218 16,-218 16,-212 22,-206 28,-206"/>
<text text-anchor="middle" x="261" y="-769.2" font-family="Times,serif" font-size="11.00" fill="gray">block_mycourse_recommendations</text>
</g>
<g id="clust3" class="cluster"><title>cluster_\block_mycourse_recommendations\task</title>
<path fill="none" stroke="gray" d="M294,-368C294,-368 486,-368 486,-368 492,-368 498,-374 498,-380 498,-380 498,-428 498,-428 498,-434 492,-440 486,-440 486,-440 294,-440 294,-440 288,-440 282,-434 282,-428 282,-428 282,-380 282,-380 282,-374 288,-368 294,-368"/>
<text text-anchor="middle" x="390" y="-427.2" font-family="Times,serif" font-size="11.00" fill="gray">task</text>
</g>
<!-- \\block_mycourse_recommendations\\task\\create_recommendations_task -->
<g id="node1" class="node"><title>\\block_mycourse_recommendations\\task\\create_recommendations_task</title>
<polygon fill="none" stroke="black" points="489.5,-412 290.5,-412 290.5,-376 489.5,-376 489.5,-412"/>
<text text-anchor="middle" x="390" y="-391.2" font-family="Courier,monospace" font-size="11.00">create_recommendations_task</text>
</g>
<!-- \\core\\task\\scheduled_task -->
<g id="node17" class="node"><title>\\core\\task\\scheduled_task</title>
<ellipse fill="none" stroke="black" cx="107" cy="-126" rx="100.983" ry="18"/>
<text text-anchor="middle" x="107" y="-122.3" font-family="Times,serif" font-size="14.00" fill="gray">\core\task\scheduled_task</text>
</g>
<!-- \\block_mycourse_recommendations\\task\\create_recommendations_task&#45;&gt;\\core\\task\\scheduled_task -->
<g id="edge5" class="edge"><title>\\block_mycourse_recommendations\\task\\create_recommendations_task&#45;&gt;\\core\\task\\scheduled_task</title>
<path fill="none" stroke="black" d="M290.271,-379.047C286.659,-376.964 283.215,-374.625 280,-372 216.439,-320.109 258.358,-266.782 208,-202 191.372,-180.609 167.328,-162.079 146.984,-148.672"/>
<polygon fill="none" stroke="black" points="148.831,-145.699 138.524,-143.247 145.052,-151.591 148.831,-145.699"/>
</g>
<!-- \\block_mycourse_recommendations\\import_form -->
<g id="node2" class="node"><title>\\block_mycourse_recommendations\\import_form</title>
<polygon fill="none" stroke="black" points="435.5,-358 344.5,-358 344.5,-322 435.5,-322 435.5,-358"/>
<text text-anchor="middle" x="390" y="-337.2" font-family="Courier,monospace" font-size="11.00">import_form</text>
</g>
<!-- \\moodleform -->
<g id="node16" class="node"><title>\\moodleform</title>
<ellipse fill="none" stroke="black" cx="107" cy="-72" rx="57.6901" ry="18"/>
<text text-anchor="middle" x="107" y="-68.3" font-family="Times,serif" font-size="14.00" fill="gray">\moodleform</text>
</g>
<!-- \\block_mycourse_recommendations\\import_form&#45;&gt;\\moodleform -->
<g id="edge2" class="edge"><title>\\block_mycourse_recommendations\\import_form&#45;&gt;\\moodleform</title>
<path fill="none" stroke="black" d="M344.236,-338.694C322.439,-335.834 297.276,-328.919 280,-313 206.202,-245 281.084,-167.767 208,-99 198.242,-89.8183 185.693,-83.6941 172.805,-79.6254"/>
<polygon fill="none" stroke="black" points="173.494,-76.1849 162.923,-76.8981 171.632,-82.9326 173.494,-76.1849"/>
</g>
<!-- \\block_mycourse_recommendations\\csv_importer -->
<g id="node3" class="node"><title>\\block_mycourse_recommendations\\csv_importer</title>
<polygon fill="none" stroke="black" points="439,-646 341,-646 341,-610 439,-610 439,-646"/>
<text text-anchor="middle" x="390" y="-625.2" font-family="Courier,monospace" font-size="11.00">csv_importer</text>
</g>
<!-- \\block_mycourse_recommendations\\abstract_recommendator -->
<g id="node4" class="node"><title>\\block_mycourse_recommendations\\abstract_recommendator</title>
<polygon fill="none" stroke="black" points="189.5,-754 24.5,-754 24.5,-718 189.5,-718 189.5,-754"/>
<text text-anchor="start" x="73" y="-739.2" font-family="Courier,monospace" font-size="11.00">«abstract»</text>
<text text-anchor="start" x="32.5" y="-727.2" font-family="Courier,monospace" font-size="11.00">abstract_recommendator</text>
</g>
<!-- \\block_mycourse_recommendations\\simple_recommendator -->
<g id="node5" class="node"><title>\\block_mycourse_recommendations\\simple_recommendator</title>
<polygon fill="none" stroke="black" points="466,-754 314,-754 314,-718 466,-718 466,-754"/>
<text text-anchor="middle" x="390" y="-733.2" font-family="Courier,monospace" font-size="11.00">simple_recommendator</text>
</g>
<!-- \\block_mycourse_recommendations\\simple_recommendator&#45;&gt;\\block_mycourse_recommendations\\abstract_recommendator -->
<g id="edge3" class="edge"><title>\\block_mycourse_recommendations\\simple_recommendator&#45;&gt;\\block_mycourse_recommendations\\abstract_recommendator</title>
<path fill="none" stroke="black" d="M313.697,-736C278.776,-736 236.951,-736 200.162,-736"/>
<polygon fill="none" stroke="black" points="199.929,-732.5 189.929,-736 199.929,-739.5 199.929,-732.5"/>
</g>
<!-- \\block_mycourse_recommendations\\query_result -->
<g id="node6" class="node"><title>\\block_mycourse_recommendations\\query_result</title>
<polygon fill="none" stroke="black" points="439,-538 341,-538 341,-502 439,-502 439,-538"/>
<text text-anchor="middle" x="390" y="-517.2" font-family="Courier,monospace" font-size="11.00">query_result</text>
</g>
<!-- \\block_mycourse_recommendations\\database_helper -->
<g id="node7" class="node"><title>\\block_mycourse_recommendations\\database_helper</title>
<polygon fill="none" stroke="black" points="449,-484 331,-484 331,-448 449,-448 449,-484"/>
<text text-anchor="middle" x="390" y="-463.2" font-family="Courier,monospace" font-size="11.00">database_helper</text>
</g>
<!-- \\block_mycourse_recommendations\\cosine_similarity_associator -->
<g id="node8" class="node"><title>\\block_mycourse_recommendations\\cosine_similarity_associator</title>
<polygon fill="none" stroke="black" points="493,-700 287,-700 287,-664 493,-664 493,-700"/>
<text text-anchor="middle" x="390" y="-679.2" font-family="Courier,monospace" font-size="11.00">cosine_similarity_associator</text>
</g>
<!-- \\block_mycourse_recommendations\\abstract_associator -->
<g id="node12" class="node"><title>\\block_mycourse_recommendations\\abstract_associator</title>
<polygon fill="none" stroke="black" points="179.5,-700 34.5,-700 34.5,-664 179.5,-664 179.5,-700"/>
<text text-anchor="middle" x="107" y="-679.2" font-family="Courier,monospace" font-size="11.00">abstract_associator</text>
</g>
<!-- \\block_mycourse_recommendations\\cosine_similarity_associator&#45;&gt;\\block_mycourse_recommendations\\abstract_associator -->
<g id="edge4" class="edge"><title>\\block_mycourse_recommendations\\cosine_similarity_associator&#45;&gt;\\block_mycourse_recommendations\\abstract_associator</title>
<path fill="none" stroke="black" stroke-dasharray="1,5" d="M286.758,-682C254.895,-682 220.19,-682 189.909,-682"/>
<polygon fill="none" stroke="black" points="189.82,-678.5 179.82,-682 189.82,-685.5 189.82,-678.5"/>
</g>
<!-- \\block_mycourse_recommendations\\decimal_matrix -->
<g id="node9" class="node"><title>\\block_mycourse_recommendations\\decimal_matrix</title>
<polygon fill="none" stroke="black" points="445.5,-592 334.5,-592 334.5,-556 445.5,-556 445.5,-592"/>
<text text-anchor="middle" x="390" y="-571.2" font-family="Courier,monospace" font-size="11.00">decimal_matrix</text>
</g>
<!-- \\block_mycourse_recommendations\\abstract_matrix -->
<g id="node13" class="node"><title>\\block_mycourse_recommendations\\abstract_matrix</title>
<polygon fill="none" stroke="black" points="166,-592 48,-592 48,-556 166,-556 166,-592"/>
<text text-anchor="middle" x="107" y="-571.2" font-family="Courier,monospace" font-size="11.00">abstract_matrix</text>
</g>
<!-- \\block_mycourse_recommendations\\decimal_matrix&#45;&gt;\\block_mycourse_recommendations\\abstract_matrix -->
<g id="edge6" class="edge"><title>\\block_mycourse_recommendations\\decimal_matrix&#45;&gt;\\block_mycourse_recommendations\\abstract_matrix</title>
<path fill="none" stroke="black" stroke-dasharray="1,5" d="M334.487,-574C289.339,-574 224.943,-574 176.35,-574"/>
<polygon fill="none" stroke="black" points="176.233,-570.5 166.233,-574 176.233,-577.5 176.233,-570.5"/>
</g>
<!-- \\block_mycourse_recommendations\\recommendations_renderer -->
<g id="node10" class="node"><title>\\block_mycourse_recommendations\\recommendations_renderer</title>
<polygon fill="none" stroke="black" points="479.5,-304 300.5,-304 300.5,-268 479.5,-268 479.5,-304"/>
<text text-anchor="middle" x="390" y="-283.2" font-family="Courier,monospace" font-size="11.00">recommendations_renderer</text>
</g>
<!-- \\block_mycourse_recommendations\\course_filter -->
<g id="node11" class="node"><title>\\block_mycourse_recommendations\\course_filter</title>
<polygon fill="none" stroke="black" points="442,-250 338,-250 338,-214 442,-214 442,-250"/>
<text text-anchor="middle" x="390" y="-229.2" font-family="Courier,monospace" font-size="11.00">course_filter</text>
</g>
<!-- \\block_mycourse_recommendations -->
<g id="node14" class="node"><title>\\block_mycourse_recommendations</title>
<polygon fill="none" stroke="black" points="499.5,-196 280.5,-196 280.5,-160 499.5,-160 499.5,-196"/>
<text text-anchor="middle" x="390" y="-175.2" font-family="Courier,monospace" font-size="11.00">block_mycourse_recommendations</text>
</g>
<!-- \\block_base -->
<g id="node15" class="node"><title>\\block_base</title>
<ellipse fill="none" stroke="black" cx="107" cy="-18" rx="52.7911" ry="18"/>
<text text-anchor="middle" x="107" y="-14.3" font-family="Times,serif" font-size="14.00" fill="gray">\block_base</text>
</g>
<!-- \\block_mycourse_recommendations&#45;&gt;\\block_base -->
<g id="edge1" class="edge"><title>\\block_mycourse_recommendations&#45;&gt;\\block_base</title>
<path fill="none" stroke="black" d="M369.699,-159.974C338.224,-131.516 272.824,-76.2102 208,-45 194.177,-38.3448 178.462,-33.1268 163.65,-29.1271"/>
<polygon fill="none" stroke="black" points="164.13,-25.6373 153.574,-26.5501 162.395,-32.419 164.13,-25.6373"/>
</g>
</g>
</svg>
